<svg width="408" height="346" viewBox="0 0 408 346" fill="none" xmlns="http://www.w3.org/2000/svg">
<path d="M391.643 33.4388C391.415 51.4518 376.628 65.8699 358.616 65.6425C340.603 65.4151 326.184 50.6284 326.412 32.6154C326.639 14.6024 341.426 0.184323 359.439 0.411696C377.452 0.63907 391.87 15.4258 391.643 33.4388Z" fill="white"/>
<path d="M144.083 345.669C115.167 345.669 89.9068 340.573 68.3027 330.38C46.6987 320.076 29.9136 305.563 17.9482 286.84C5.98285 268.005 0 245.902 0 220.531V21C0 9.95432 8.9543 1 20 1H62.2627C73.3084 1 82.2627 9.95432 82.2627 21L82.2627 213.386C82.2627 225.129 84.8109 235.599 89.9072 244.795C95.1143 253.99 102.371 261.191 111.677 266.398C120.983 271.606 131.785 274.209 144.083 274.209C156.381 274.209 167.128 271.606 176.323 266.398C178.68 265.08 180.906 263.632 183 262.058V342.114C170.839 344.484 157.867 345.669 144.083 345.669Z" fill="white"/>
<path d="M263.917 92C292.833 92 318.093 95.7408 339.697 103.223C361.301 110.786 378.086 121.439 390.052 135.183C402.017 149.008 408 165.232 408 183.855V325C408 336.046 399.046 345 388 345H345.737C334.692 345 325.737 336.046 325.737 325V189.102C325.737 180.481 323.189 172.796 318.093 166.046C312.886 159.296 305.629 154.01 296.323 150.188C287.017 146.365 276.215 144.454 263.917 144.454C251.619 144.454 240.872 146.365 231.677 150.188C229.32 151.156 227.094 152.218 225 153.374V94.6123C237.161 92.8725 250.133 92 263.917 92Z" fill="white"/>
<path d="M132 345.39C126.595 344.943 121.335 344.283 116.22 343.408H132V345.39ZM270.565 82.001C281.611 82.001 290.565 90.9553 290.565 102.001V216.079C290.565 242.438 284.641 265.401 272.793 284.969C260.945 304.421 244.422 319.5 223.226 330.205C210.963 336.331 197.554 340.685 183 343.267V262.488C191.174 257.196 197.627 250.13 202.355 241.287C207.464 231.734 210.018 220.856 210.019 208.655V102.001C210.019 90.9553 218.973 82.001 230.019 82.001H270.565Z" fill="white"/>
<path d="M188 102C188 90.9543 196.954 82 208 82H270C320.347 82.175 341.101 88.0847 360.042 99.7682C361.35 100.575 362.541 101.557 363.611 102.66L378.5 118L389.444 131.224C390.147 132.073 390.778 132.979 391.332 133.933L399.5 148C401.463 151.926 398.351 156.481 393.98 156.08L265.063 144.243C263.305 144.082 261.532 144.154 259.793 144.458L211.442 152.905C199.205 155.042 188 145.625 188 133.203V102Z" fill="white"/>
<rect y="66" width="65" height="183" rx="10" transform="rotate(-90 0 66)" fill="white"/>
<rect x="174" y="266" width="21" height="73" rx="5" fill="white"/>
</svg>
